PathFileType  4	(X/Y/Z) C:\MyRepositories_Xander\mocap-processing\Testing_HJC_Function\TRCs_w_HJCs
DataRate	CameraRate	NumFrames	NumMarkers	Units	OrigDataRate	OrigDataStartFrame	OrigNumFrames
  240.0		  240.0		    4		    151		 mm	  240.0	      69	    544
Frame#	Time	LFHD			RFHD			LBHD			C7			T10			CLAV			STRN			RBAK			LSHO			LUPA			LELB			LFRM			LWRA			LWRB			LFIN			RSHO			RUPA			RELB			RFRM			RWRA			RWRB			RFIN			LASI			RASI			LPSI			RPSI			SACR			LTHI			LKNE			LMKN			LTIB			LANK			LMED			LHEE			LTOE			RTHI			RKNE			RMKN			RTIB			RANK			RMED			RHEE			RTOE			PELO			PELA			PELL			PELP			LFEO			LFEA			LFEL			LFEP			LTIO			LTIA			LTIL			LTIP			LFOO			LFOA			LFOL			LFOP			LTOO			LTOA			LTOL			LTOP			RFEO			RFEA			RFEL			RFEP			RTIO			RTIA			RTIL			RTIP			RFOO			RFOA			RFOL			RFOP			RTOO			RTOA			RTOL			RTOP			HEDO			HEDA			HEDL			HEDP			LCLO			LCLA			LCLL			LCLP			RCLO			RCLA			RCLL			RCLP			TRXO			TRXA			TRXL			TRXP			LHUO			LHUA			LHUL			LHUP			LRAO			LRAA			LRAL			LRAP			LHNO			LHNA			LHNL			LHNP			RHUO			RHUA			RHUL			RHUP			RRAO			RRAA			RRAL			RRAP			RHNO			RHNA			RHNL			RHNP			RBHD			*120			*121			*122			LHipAngles			LKneeAngles			LAbsAnkleAngle			LAnkleAngles			RHipAngles			RKneeAngles			RAnkleAngles			RAbsAnkleAngle			LPelvisAngles			RPelvisAngles			LFootProgressAngles			RFootProgressAngles			RNeckAngles			LNeckAngles			RSpineAngles			LSpineAngles			LShoulderAngles			LElbowAngles			LWristAngles			RShoulderAngles			RElbowAngles			RWristAngles			RThoraxAngles			LThoraxAngles			RHeadAngles			LHeadAngles			RHJC			LHJC			
		X1	Y1	Z1	X2	Y2	Z2	X3	Y3	Z3	X4	Y4	Z4	X5	Y5	Z5	X6	Y6	Z6	X7	Y7	Z7	X8	Y8	Z8	X9	Y9	Z9	X10	Y10	Z10	X11	Y11	Z11	X12	Y12	Z12	X13	Y13	Z13	X14	Y14	Z14	X15	Y15	Z15	X16	Y16	Z16	X17	Y17	Z17	X18	Y18	Z18	X19	Y19	Z19	X20	Y20	Z20	X21	Y21	Z21	X22	Y22	Z22	X23	Y23	Z23	X24	Y24	Z24	X25	Y25	Z25	X26	Y26	Z26	X27	Y27	Z27	X28	Y28	Z28	X29	Y29	Z29	X30	Y30	Z30	X31	Y31	Z31	X32	Y32	Z32	X33	Y33	Z33	X34	Y34	Z34	X35	Y35	Z35	X36	Y36	Z36	X37	Y37	Z37	X38	Y38	Z38	X39	Y39	Z39	X40	Y40	Z40	X41	Y41	Z41	X42	Y42	Z42	X43	Y43	Z43	X44	Y44	Z44	X45	Y45	Z45	X46	Y46	Z46	X47	Y47	Z47	X48	Y48	Z48	X49	Y49	Z49	X50	Y50	Z50	X51	Y51	Z51	X52	Y52	Z52	X53	Y53	Z53	X54	Y54	Z54	X55	Y55	Z55	X56	Y56	Z56	X57	Y57	Z57	X58	Y58	Z58	X59	Y59	Z59	X60	Y60	Z60	X61	Y61	Z61	X62	Y62	Z62	X63	Y63	Z63	X64	Y64	Z64	X65	Y65	Z65	X66	Y66	Z66	X67	Y67	Z67	X68	Y68	Z68	X69	Y69	Z69	X70	Y70	Z70	X71	Y71	Z71	X72	Y72	Z72	X73	Y73	Z73	X74	Y74	Z74	X75	Y75	Z75	X76	Y76	Z76	X77	Y77	Z77	X78	Y78	Z78	X79	Y79	Z79	X80	Y80	Z80	X81	Y81	Z81	X82	Y82	Z82	X83	Y83	Z83	X84	Y84	Z84	X85	Y85	Z85	X86	Y86	Z86	X87	Y87	Z87	X88	Y88	Z88	X89	Y89	Z89	X90	Y90	Z90	X91	Y91	Z91	X92	Y92	Z92	X93	Y93	Z93	X94	Y94	Z94	X95	Y95	Z95	X96	Y96	Z96	X97	Y97	Z97	X98	Y98	Z98	X99	Y99	Z99	X100	Y100	Z100	X101	Y101	Z101	X102	Y102	Z102	X103	Y103	Z103	X104	Y104	Z104	X105	Y105	Z105	X106	Y106	Z106	X107	Y107	Z107	X108	Y108	Z108	X109	Y109	Z109	X110	Y110	Z110	X111	Y111	Z111	X112	Y112	Z112	X113	Y113	Z113	X114	Y114	Z114	X115	Y115	Z115	X116	Y116	Z116	X117	Y117	Z117	X118	Y118	Z118	X119	Y119	Z119	X120	Y120	Z120	X121	Y121	Z121	X122	Y122	Z122	X123	Y123	Z123	X124	Y124	Z124	X125	Y125	Z125	X126	Y126	Z126	X127	Y127	Z127	X128	Y128	Z128	X129	Y129	Z129	X130	Y130	Z130	X131	Y131	Z131	X132	Y132	Z132	X133	Y133	Z133	X134	Y134	Z134	X135	Y135	Z135	X136	Y136	Z136	X137	Y137	Z137	X138	Y138	Z138	X139	Y139	Z139	X140	Y140	Z140	X141	Y141	Z141	X142	Y142	Z142	X143	Y143	Z143	X144	Y144	Z144	X145	Y145	Z145	X146	Y146	Z146	X147	Y147	Z147	X148	Y148	Z148	X149	Y149	Z149	X150	Y150	Z150	X151	Y151	Z151	

69	0.28333	-555.213	1652.591	208.965	-407.956	1656.652	211.281	-508.819	1545.457	335.443	-478.172	1422.169	350.723	-472.220	1212.968	387.124	-481.647	1367.193	207.411	-475.081	1150.121	151.296	-391.397	1354.979	385.671	-640.686	1416.037	320.693	-726.216	1267.164	342.242	-808.622	1198.781	339.047	-893.241	1128.971	354.209	-991.708	1082.771	364.469	-959.809	1035.171	352.358	-1014.087	1006.632	390.266	-313.089	1412.948	329.402	-247.556	1260.239	341.262	-195.049	1168.766	339.204	-97.989	1091.726	336.898	0.549	1046.256	331.193	-34.623	1015.188	333.621	26.217	980.763	356.487	-607.645	948.532	194.211	-349.585	929.520	208.645	-540.347	993.979	379.816	-424.898	984.061	383.764	-486.731	968.742	395.829	-700.824	664.188	280.403	-679.412	495.589	326.863	-549.799	469.969	334.173	-723.997	267.080	351.669	-684.986	95.843	374.639	-605.080	100.020	347.457	-645.187	86.744	425.352	-663.184	71.351	219.329	-260.871	640.191	292.958	-261.437	493.693	307.098	-392.881	462.906	319.749	-184.388	267.571	353.894	-192.942	94.988	357.139	-276.830	97.255	349.567	-230.592	85.034	424.603	-216.712	65.374	217.660	-488.030	855.776	260.101	-480.028	828.342	80.909	-668.715	869.088	249.995	-473.357	1034.652	233.371	-614.768	488.676	323.483	-641.446	422.611	-51.518	-993.800	529.215	343.306	-578.372	862.432	255.048	-649.008	97.724	362.400	-767.114	73.130	11.422	-999.368	139.851	477.346	-616.786	465.637	325.776	-675.827	86.282	221.819	-652.548	285.436	219.785	-874.225	109.650	239.150	-658.377	86.282	421.578	-681.643	86.282	155.232	-673.884	152.667	154.555	-747.776	94.072	161.009	-675.827	86.282	221.819	-323.749	482.124	314.434	-357.012	425.492	-57.411	-692.543	413.654	357.851	-397.687	849.121	265.155	-231.770	96.037	353.634	-198.870	65.958	-19.818	-596.252	6.675	328.722	-318.510	460.129	316.667	-206.400	86.423	212.080	-254.121	281.958	208.879	-401.496	38.595	198.994	-219.871	86.423	412.928	-201.909	86.423	145.131	-217.816	151.602	144.064	-266.941	70.480	140.769	-206.400	86.423	212.080	NaN	NaN	NaN	NaN	NaN	NaN	NaN	NaN	NaN	NaN	NaN	NaN	-644.675	1360.196	309.978	-739.565	1397.567	150.542	-631.430	1545.613	345.557	-481.454	1366.875	214.401	-309.193	1358.184	318.369	-205.808	1399.355	150.516	-295.183	1161.237	278.692	-481.454	1366.875	214.401	-481.454	1366.875	214.401	-486.838	1375.738	19.349	-286.284	1372.843	209.285	-475.726	1171.840	205.382	-793.626	1188.385	298.844	-675.943	1097.533	126.433	-919.298	1306.945	150.589	-644.675	1360.196	309.978	-978.035	1059.129	351.796	-925.399	920.262	196.127	-1096.798	1171.171	211.691	-806.535	1179.338	302.551	-1064.990	952.423	392.715	-1008.339	956.831	524.597	-965.736	856.423	353.289	-978.035	1059.129	351.796	-209.714	1166.220	295.943	-388.751	1084.189	203.934	-282.505	1105.641	491.597	-309.193	1358.184	318.369	-16.522	1029.600	325.517	-123.221	858.669	232.895	-90.786	967.794	525.130	-196.190	1156.657	298.013	71.831	925.670	349.071	61.625	947.874	485.325	177.906	1014.372	342.561	-16.522	1029.600	325.517	NaN	NaN	NaN	-475.083	1380.618	358.378	NaN	NaN	NaN	-457.735	1538.791	323.912	0.752	-6.409	1.903	-0.799	-15.063	4.629	0.000	0.000	-5.207	0.006	13.147	-5.347	15.875	7.861	-1.591	2.201	-10.675	1.610	-0.007	-0.011	-4.740	0.000	0.000	-4.740	-4.638	2.536	-8.499	4.638	-2.536	-8.499	6.692	-4.992	90.000	13.745	-3.837	90.000	NaN	NaN	NaN	NaN	NaN	NaN	6.591	-3.769	11.003	-6.591	3.769	11.003	-42.522	-136.409	-1.870	0.000	-0.000	-21.249	-13.785	124.557	7.413	-25.693	-115.392	-2.886	-0.000	-0.000	-30.237	-8.549	118.874	11.700	-1.680	1.580	2.648	1.680	-1.580	2.648	NaN	NaN	NaN	NaN	NaN	NaN	-394.870	860.240	280.552	-565.190	874.872	274.727
70	0.28750	-555.364	1652.794	209.163	-407.448	1656.975	211.432	-508.847	1545.526	335.542	-478.064	1422.274	350.741	-472.184	1212.955	387.145	-481.269	1367.050	207.369	-475.349	1150.157	151.250	-391.318	1354.923	385.663	-640.484	1415.966	320.628	-725.990	1267.044	342.151	-808.395	1198.631	338.947	-893.071	1128.779	354.099	-991.562	1082.536	364.374	-959.688	1035.086	352.297	-1013.831	1006.395	390.250	-313.055	1412.884	329.244	-247.543	1260.100	341.230	-194.984	1168.424	338.818	-98.103	1091.671	336.854	0.424	1046.094	331.095	-34.806	1014.927	333.459	26.071	980.525	356.314	-607.642	948.616	194.212	-349.353	929.958	208.614	-540.359	993.975	379.796	-424.827	984.038	383.742	-486.704	968.798	395.807	-700.901	664.283	280.478	-679.652	495.904	327.078	-549.749	469.961	334.070	-724.079	267.169	351.760	-685.100	95.927	374.740	-605.068	99.740	347.070	-645.175	86.766	425.343	-663.370	71.549	219.485	-260.846	640.207	292.905	-261.545	493.582	306.760	-393.054	463.059	320.017	-184.465	267.620	354.006	-193.053	94.768	357.109	-276.994	97.418	349.853	-230.581	84.955	424.564	-216.685	65.390	217.654	-487.783	855.965	260.004	-479.758	828.721	80.784	-668.489	869.018	249.928	-473.378	1034.889	233.450	-615.015	488.908	323.734	-641.599	422.525	-51.154	-993.944	529.924	343.342	-578.136	862.492	254.966	-649.175	97.639	362.319	-769.251	73.544	11.684	-999.164	139.729	479.281	-617.027	465.867	326.006	-676.138	86.196	221.766	-652.874	285.352	219.710	-874.520	109.550	239.301	-658.483	86.196	421.508	-682.022	86.196	155.186	-674.268	152.581	154.500	-748.150	93.981	161.031	-676.138	86.196	221.766	-323.890	482.046	313.860	-355.951	426.157	-58.452	-693.122	413.726	355.912	-397.430	849.438	265.042	-231.889	95.994	353.752	-200.581	64.856	-19.791	-596.548	6.702	330.632	-318.650	460.056	316.133	-206.508	86.377	212.200	-254.188	281.922	208.998	-401.614	38.590	199.096	-219.997	86.377	413.047	-202.012	86.377	145.251	-217.905	151.558	144.183	-267.047	70.448	140.883	-206.508	86.377	212.200	NaN	NaN	NaN	NaN	NaN	NaN	NaN	NaN	NaN	NaN	NaN	NaN	-644.491	1360.125	309.916	-739.346	1397.552	150.292	-631.177	1545.688	345.513	-481.079	1366.732	214.359	-309.126	1358.125	318.198	-205.890	1399.327	150.659	-295.018	1161.521	278.541	-481.079	1366.732	214.359	-481.079	1366.732	214.359	-486.362	1375.604	19.396	-285.988	1372.365	209.330	-475.682	1171.778	205.341	-793.549	1188.389	298.650	-676.395	1098.059	125.577	-919.625	1307.493	151.146	-644.491	1360.125	309.916	-977.903	1058.965	351.718	-925.743	920.561	195.379	-1097.078	1171.549	212.289	-806.453	1179.329	302.365	-1064.632	952.062	392.772	-1007.851	956.639	524.645	-965.186	856.216	353.280	-977.903	1058.965	351.718	-209.459	1166.038	295.483	-388.254	1084.296	202.224	-283.253	1104.656	490.761	-309.126	1358.125	318.198	-16.663	1029.390	325.388	-122.867	859.046	231.710	-91.789	966.900	524.191	-195.963	1156.473	297.577	71.712	925.464	348.846	61.401	947.457	485.122	177.753	1014.215	342.547	-16.663	1029.390	325.388	NaN	NaN	NaN	-474.748	1380.547	357.983	NaN	NaN	NaN	-457.607	1538.950	323.798	0.906	-6.397	2.022	-0.893	-15.400	4.729	0.000	0.000	-5.150	0.006	13.400	-5.295	15.720	7.676	-1.606	2.250	-10.197	1.436	-0.008	-0.298	-4.838	0.000	0.000	-4.838	-4.553	2.543	-8.442	4.553	-2.543	-8.442	6.688	-5.051	90.000	13.733	-3.842	90.000	NaN	NaN	NaN	NaN	NaN	NaN	6.405	-3.768	10.952	-6.405	3.768	10.952	-42.458	-136.680	-1.882	0.000	0.000	-21.244	-13.894	124.818	7.377	-25.817	-115.705	-2.966	0.000	0.000	-30.224	-8.474	119.132	11.641	-1.584	1.551	2.648	1.584	-1.551	2.648	NaN	NaN	NaN	NaN	NaN	NaN	-394.707	860.231	280.352	-565.158	874.892	274.529
71	0.29167	-554.977	1652.543	209.089	-407.458	1656.736	211.463	-508.766	1545.552	335.620	-478.052	1422.288	350.785	-472.131	1212.918	387.133	-481.693	1367.309	207.513	-474.989	1150.114	151.251	-391.264	1354.873	385.656	-640.560	1416.023	320.879	-725.826	1266.828	342.102	-808.291	1198.442	338.883	-892.929	1128.575	353.995	-991.354	1082.291	364.250	-959.458	1034.702	352.009	-1013.549	1006.242	390.234	-312.872	1412.551	329.076	-247.531	1260.054	341.243	-195.046	1168.312	338.734	-98.158	1091.338	336.678	0.531	1045.846	330.949	-34.980	1014.744	333.359	25.909	980.267	356.210	-607.639	948.613	194.227	-349.633	929.743	208.659	-540.292	993.940	379.763	-424.785	984.089	383.717	-486.651	968.667	395.772	-700.817	664.203	280.430	-679.507	495.775	326.966	-549.880	469.553	333.307	-724.026	267.099	351.687	-685.001	95.866	374.657	-605.001	99.970	347.298	-645.169	86.757	425.357	-663.123	71.167	219.251	-260.849	640.228	292.911	-261.490	493.546	306.744	-392.867	462.917	319.764	-184.450	267.557	353.800	-193.001	94.833	357.136	-276.843	97.307	349.643	-230.585	84.942	424.581	-216.638	65.464	217.607	-488.006	855.864	260.031	-479.974	828.615	80.812	-668.698	869.079	249.925	-473.436	1034.775	233.483	-614.864	488.842	323.612	-641.425	422.571	-51.282	-993.815	529.486	343.276	-578.352	862.471	254.978	-649.040	97.711	362.359	-767.806	73.324	11.424	-999.348	139.775	477.989	-616.878	465.802	325.895	-675.824	86.267	221.771	-652.578	285.425	219.746	-874.230	109.601	239.055	-658.422	86.267	421.535	-681.625	86.267	155.184	-673.876	152.653	154.509	-747.760	94.045	160.945	-675.824	86.267	221.771	-323.826	481.957	313.835	-355.795	426.118	-58.451	-692.965	413.327	355.827	-397.660	849.256	265.085	-231.830	95.979	353.665	-199.369	65.184	-19.727	-596.307	6.598	329.351	-318.585	459.966	316.104	-206.415	86.366	212.119	-254.151	281.897	208.903	-401.504	38.522	198.974	-219.948	86.366	412.963	-201.904	86.366	145.171	-217.816	151.543	144.099	-266.934	70.418	140.790	-206.415	86.366	212.119	NaN	NaN	NaN	NaN	NaN	NaN	NaN	NaN	NaN	NaN	NaN	NaN	-644.534	1360.186	310.133	-739.495	1397.588	150.897	-631.350	1545.463	345.789	-481.497	1366.988	214.503	-309.167	1357.776	318.036	-206.081	1398.599	150.083	-295.854	1160.926	278.360	-481.497	1366.988	214.502	-481.497	1366.988	214.502	-486.981	1375.925	19.591	-286.466	1373.004	209.291	-475.728	1172.093	205.404	-793.639	1188.472	298.446	-677.275	1099.288	124.203	-920.453	1308.535	152.304	-644.534	1360.186	310.133	-977.696	1058.663	351.517	-926.243	921.322	194.036	-1097.539	1172.126	213.409	-806.523	1179.385	302.161	-1064.417	952.045	393.000	-1007.111	956.616	524.545	-965.400	856.022	353.202	-977.696	1058.663	351.517	-209.591	1165.867	295.427	-388.287	1084.094	202.492	-283.130	1104.711	490.639	-309.168	1357.776	318.036	-16.704	1029.167	325.265	-123.061	858.691	231.792	-91.673	966.822	524.272	-196.089	1156.298	297.515	71.389	925.122	348.765	61.226	947.274	484.941	177.569	1013.563	342.302	-16.704	1029.167	325.265	NaN	NaN	NaN	-474.711	1380.545	358.000	NaN	NaN	NaN	-457.524	1538.932	323.852	0.800	-6.395	1.997	-0.831	-15.186	4.687	0.000	0.000	-5.182	0.006	13.263	-5.325	15.819	7.668	-1.620	2.205	-10.367	1.440	-0.007	-0.123	-4.827	0.000	0.000	-4.827	-4.605	2.545	-8.440	4.605	-2.545	-8.440	6.682	-4.979	90.000	13.749	-3.855	90.000	NaN	NaN	NaN	NaN	NaN	NaN	6.576	-3.808	10.966	-6.576	3.808	10.966	-42.573	-137.074	-2.013	0.000	0.000	-21.239	-13.923	125.154	6.988	-25.710	-115.679	-2.899	0.000	0.000	-30.208	-8.552	119.135	11.745	-1.693	1.611	2.673	1.693	-1.611	2.673	NaN	NaN	NaN	NaN	NaN	NaN	-394.866	860.413	280.497	-565.153	874.935	274.667
72	0.29583	-554.595	1652.455	209.137	-407.800	1656.863	211.449	-508.621	1545.364	335.675	-477.992	1422.273	350.746	-472.147	1212.909	387.138	-481.607	1367.335	207.631	-475.181	1150.117	151.242	-391.233	1354.827	385.652	-640.498	1416.019	320.909	-725.896	1266.770	342.192	-808.283	1198.326	338.904	-892.750	1128.337	353.875	-991.180	1082.021	364.117	-959.282	1034.382	351.744	-1013.237	1005.885	390.022	-313.027	1412.650	329.271	-247.551	1259.935	341.179	-194.886	1167.827	338.321	-98.236	1091.133	336.596	0.240	1045.605	330.841	-35.023	1014.625	333.266	25.732	980.044	356.091	-607.620	948.558	194.275	-349.658	929.745	208.632	-540.393	994.005	379.828	-424.733	984.090	383.719	-486.617	968.695	395.799	-700.848	664.207	280.442	-679.521	495.718	326.950	-549.889	469.736	333.569	-724.001	267.099	351.675	-685.022	95.893	374.689	-604.985	99.739	346.955	-645.181	86.758	425.363	-663.101	71.158	219.242	-260.856	640.190	292.840	-261.352	493.253	306.423	-392.857	462.924	319.791	-184.431	267.540	353.804	-193.019	94.843	357.113	-276.868	97.342	349.677	-230.515	85.030	424.596	-216.696	65.411	217.677	-487.976	855.851	260.067	-479.992	828.557	80.852	-668.674	869.029	250.009	-473.448	1034.758	233.467	-614.879	488.778	323.591	-641.470	422.594	-51.338	-993.846	529.464	343.286	-578.325	862.440	255.038	-649.106	97.619	362.244	-769.387	73.512	11.782	-998.916	139.804	479.399	-616.895	465.738	325.868	-675.870	86.181	221.652	-652.533	285.328	219.624	-874.269	109.606	238.901	-658.503	86.181	421.419	-681.659	86.181	155.063	-673.880	152.564	154.387	-747.792	93.989	160.813	-675.870	86.181	221.652	-323.699	481.625	313.351	-354.822	426.441	-59.391	-693.180	412.715	354.404	-397.627	849.261	265.095	-231.850	96.000	353.669	-199.701	64.654	-19.376	-596.052	6.756	329.782	-318.462	459.637	315.650	-206.521	86.385	212.108	-254.227	281.924	208.922	-401.625	38.572	199.078	-219.935	86.385	412.960	-202.050	86.385	145.157	-217.952	151.564	144.095	-267.085	70.447	140.814	-206.521	86.385	212.108	NaN	NaN	NaN	NaN	NaN	NaN	NaN	NaN	NaN	NaN	NaN	NaN	-644.458	1360.182	310.158	-739.334	1397.571	150.911	-631.322	1545.423	345.824	-481.409	1367.013	214.621	-309.271	1357.883	318.201	-206.168	1398.860	150.468	-295.780	1161.208	278.446	-481.409	1367.013	214.621	-481.409	1367.013	214.621	-486.913	1375.988	19.802	-286.464	1372.866	209.383	-475.805	1172.204	205.489	-793.220	1187.984	298.713	-674.991	1097.303	126.342	-918.937	1306.465	150.153	-644.458	1360.182	310.158	-977.517	1058.389	351.317	-924.372	919.641	195.688	-1096.238	1170.277	211.024	-806.120	1178.912	302.395	-1064.022	951.627	392.797	-1006.456	956.040	524.208	-965.002	855.792	352.639	-977.517	1058.389	351.317	-209.095	1165.690	294.885	-387.412	1084.318	199.498	-284.493	1102.782	489.500	-309.271	1357.883	318.201	-16.863	1028.974	325.167	-122.251	859.625	229.596	-93.366	965.144	522.633	-195.639	1156.120	297.005	71.176	924.873	348.623	61.084	947.022	484.806	177.409	1013.250	342.122	-16.863	1028.974	325.167	NaN	NaN	NaN	-474.916	1380.438	358.492	NaN	NaN	NaN	-457.503	1538.982	324.045	0.820	-6.387	1.969	-0.831	-15.430	4.688	0.000	0.000	-5.169	0.006	13.519	-5.316	15.807	7.525	-1.716	2.171	-10.156	1.292	-0.008	-0.154	-4.911	0.000	0.000	-4.911	-4.592	2.530	-8.457	4.592	-2.530	-8.457	6.709	-4.969	90.000	13.740	-3.821	90.000	NaN	NaN	NaN	NaN	NaN	NaN	6.518	-3.807	10.994	-6.518	3.807	10.994	-42.383	-136.294	-1.938	0.000	0.000	-21.249	-14.045	124.210	7.210	-25.863	-116.327	-3.054	0.000	-0.000	-30.154	-8.535	119.830	11.649	-1.646	1.617	2.684	1.646	-1.617	2.684	NaN	NaN	NaN	NaN	NaN	NaN	-394.874	860.353	280.449	-565.124	874.949	274.722
